<?xml version="1.0" standalone="no"?>
<!DOCTYPE svg PUBLIC "-//W3C//DTD SVG 1.1//EN" "http://www.w3.org/Graphics/SVG/1.1/DTD/svg11.dtd" >
<!--
2013-9-30: Created.
-->
<svg>
<metadata>
Created by iconfont
</metadata>
<defs>

<font id="iconfont" horiz-adv-x="1024" >
  <font-face
    font-family="iconfont"
    font-weight="500"
    font-stretch="normal"
    units-per-em="1024"
    ascent="896"
    descent="-128"
  />
    <missing-glyph />
    
    <glyph glyph-name="qq" unicode="&#58965;" d="M512.178 830.547c-246.739 0-446.697-199.996-446.697-446.735 0-246.74 199.958-446.724 446.697-446.724 246.714 0 446.696 199.984 446.696 446.724 0 246.738-199.983 446.735-446.696 446.735zM758.12 244.57c-11.522-10.752-31.334 0.975-50.375 27.33-16.26-43.155-41.026-79.821-72.467-109.49 67.848 38.509 85.144 23.522 85.144 6.585 0-29.229-51.708-52.89-115.555-52.89-37.904 0-71.366 8.29-92.511 21.17-20.94-12.882-54.61-21.17-92.486-21.17-63.847 0-115.581 23.66-115.581 52.89 0 16.732 17.321 31.923 44.241 41.547-12.677 18.45-23.25 39.032-31.538 61.358-19.040-26.15-38.826-38.082-50.374-27.33-15.783 14.808-9.803 67.132 13.652 116.736 5.389 11.342 11.136 21.53 17.091 30.384 3.284 144.233 98.285 260.006 214.816 260.006h0.384c116.531 0 211.532-115.582 214.79-260.006 5.954-8.853 11.753-19.040 17.117-30.384 23.275-49.604 29.433-101.928 13.652-116.736zM758.12 244.57z"  horiz-adv-x="1024" />

    
    <glyph glyph-name="dianyingpiao" unicode="&#58933;" d="M945.278 157.349c0 36.92 42.722 68.164 57.722 78.673v56.011c0 36.433-22.049 55.967-58.481 55.967h-412.3C495.786 348 464 328.466 464 292.033v-53.881c34-7.64 65.968-40.912 65.968-80.803 0-39.893-31.968-73.163-65.968-80.803v-48.385C464-8.272 495.786-44 532.218-44h412.3c36.433 0 58.481 35.728 58.481 72.161v50.515c-14.999 10.508-57.721 41.751-57.721 78.673zM328.975-18.656C104.036 61.538-13.72 309.777 66.474 534.716S394.907 877.412 619.846 797.218s342.696-328.433 262.502-553.372S553.914-98.85 328.975-18.656zM474.413 389.28m-386.891 0a386.891 386.891 0 1 1 773.782 0 386.891 386.891 0 1 1-773.782 0ZM557.474 607.646m-103.941 0a103.941 103.941 0 1 1 207.882 0 103.941 103.941 0 1 1-207.882 0ZM404.282 177.952m-103.941 0a103.941 103.941 0 1 1 207.882 0 103.941 103.941 0 1 1-207.882 0ZM694.852 313.756m-103.941 0a103.941 103.941 0 1 1 207.882 0 103.941 103.941 0 1 1-207.882 0ZM265.158 466.948m-103.941 0a103.941 103.941 0 1 1 207.882 0 103.941 103.941 0 1 1-207.882 0ZM479.428 393.316m-51.97 0a51.97 51.97 0 1 1 103.94 0 51.97 51.97 0 1 1-103.94 0Z"  horiz-adv-x="1024" />

    
    <glyph glyph-name="erweima" unicode="&#59048;" d="M150.83738 745.16262h78.513168v-78.513168h-78.513168v78.513168zM370.676297 886.486322H9.513678v-361.162619h141.323702v-62.810535h78.513168v62.810535h141.323703v78.514191h62.810534v62.810534h-62.810534V886.486322h0.002046z m-78.515214-282.647405H88.026846V807.973154h204.134237v-204.134237zM150.83738 101.352595h78.513168v-78.513168h-78.513168v78.513168zM794.647405 745.16262h78.513168v-78.513168h-78.513168v78.513168zM512 390.331195v-84.844363h78.513168v78.513168h62.810535v78.513168h-62.810535v62.810535h-78.513168v-134.992508zM512 103.197616v-80.359212h78.513168V164.163129h62.810535v78.513168H512v-139.478681zM590.513168 22.838404h62.810535v-62.810535h-62.810535v62.810535zM433.486832-39.973154v-78.513168h157.026336v78.513168H433.486832zM731.836871 164.163129H653.323703v-141.324725H794.647405v78.514191h-62.810534v62.810534zM794.647405-118.486322H1014.486322v78.513168H873.161596v62.810534h-78.514191v-141.323702zM1014.486322 384v78.513168H873.161596v-78.513168h141.324726zM935.973154 101.352595h78.513168v-78.513168h-78.513168v78.513168zM433.486832 603.838917h78.513168v-78.513168H433.486832v78.513168zM794.647405 462.513168v62.810535h219.837894V886.486322H653.323703v-78.513168H512v-62.810534H653.323703v-78.513168h-62.810535v-62.810535h62.810535v-78.513168h78.513168v-62.810534h62.810534v-0.002047z m-62.810534 345.459986H935.971108v-204.134237H731.836871V807.973154zM731.836871 305.486832h62.810534v-62.810535h-62.810534v62.810535zM873.161596 164.163129h-78.514191v-62.810534h141.324726V242.676297h78.513168v62.810535H873.160573v-141.323703zM433.486832 745.16262h78.513168v-78.513168H433.486832v78.513168zM229.350548 384h62.810535v-78.513168h-62.810535v78.513168zM433.486832 462.513168H292.162106v-78.513168h78.514191v-78.513168h62.810535v157.026336zM370.676297 22.838404V164.163129h62.810535v78.513168H150.83738V384.001023H9.513678v-78.513168h78.513168v-62.810534H9.513678v-361.16262H370.676297v78.513168h62.810535v62.810535h-62.810535z m-78.515214-62.811558H88.026846V164.163129h204.134237v-204.136283zM433.486832 305.486832h78.513168v-62.810535H433.486832v62.810535zM653.323703 384h78.513168v-78.513168H653.323703v78.513168zM794.647405 384h78.513168v-78.513168h-78.513168v78.513168z"  horiz-adv-x="1024" />

    
    <glyph glyph-name="baitiaoicon-" unicode="&#58914;" d="M794.283008 871.424H477.683712c-21.274624 0-35.70688-6.18496-44.104704-18.904064L105.986048 474.344448l-0.248832-0.28672-0.202752-0.320512c-1.035264-1.629184-2.256896-3.289088-3.550208-5.047296-4.125696-5.6064-8.800256-11.96032-8.800256-19.712v-485.018624C93.184-78.592 126.029824-95.232 154.841088-95.232h677.89312c28.08832 0 42.785792 29.776896 42.785792 59.191296v811.55072C875.52 838.315008 846.848 871.424 794.283008 871.424zM414.802944 750.926848l-72.8064-345.419776c-12.520448 12.607488-37.064704 33.087488-67.702784 44.596224-37.397504 14.04928-71.066624 16.739328-91.369472 16.739328-2.787328 0-5.322752-0.050176-7.580672-0.129024l239.459328 284.213248z m406.514688-794.458112c-0.319488-0.3328-0.945152-0.500736-1.861632-0.500736H154.841088c-6.651904 0-8.409088 5.226496-8.409088 7.991296V417.016832c17.449984-0.219136 75.21792-1.846272 102.536192-13.63456 31.68256-13.673472 95.074304-67.577856 95.710208-68.120576l0.613376-0.523264 0.744448-0.309248c3.692544-1.534976 8.564736-2.07872 11.614208-2.07872 4.375552 0 9.1136 1.055744 12.672 2.823168 1.065984 0.528384 2.10944 0.976896 3.11808 1.411072 4.385792 1.885184 9.356288 4.023296 10.906624 11.37664L485.151744 820.224h291.382272c40.96 0 45.737984-22.868992 45.737984-48.811008v-807.453696c0-0.274432 0.013312-0.638976 0.03072-1.076224 0.053248-1.276928 0.216064-5.161984-0.985088-6.414336zM687.000576 552.96h-79.15008L492.07808 337.933312 389.608448 527.617024l-35.77344-75.415552L434.325504 310.272H338.944v-45.056h118.784v-54.272H338.944v-44.032h118.784v-105.472h69.632V166.912h117.76v44.032H527.36v54.272h117.76v45.056h-95.291392z"  horiz-adv-x="1024" />

    
    <glyph glyph-name="qq1" unicode="&#58922;" d="M512 896c-282.624 0-512-229.376-512-512s229.376-512 512-512S1024 101.376 1024 384s-229.376 512-512 512z m231.424-672.256c-10.24-2.048-29.696 14.336-49.152 40.96-4.096-29.184-17.92-55.296-38.912-76.8 35.84-11.776 59.392-33.28 56.832-55.296-3.584-27.648-48.64-44.544-100.352-37.888-36.352 4.608-66.56 19.456-80.384 37.888-5.632-0.512-11.264-0.512-16.896-0.512-3.584 0-6.656 0.512-9.728 0.512-12.8-18.944-44.544-34.816-83.968-38.912-53.76-5.632-100.352 11.776-104.448 39.424-3.072 22.016 21.504 43.52 58.368 54.272-22.528 22.528-36.864 50.688-40.448 81.408-21.504-26.112-43.52-40.448-52.224-35.84-16.384 8.704-20.48 62.464 6.144 115.712 9.728 19.456 21.504 35.84 33.792 49.152-3.584 7.168-6.144 15.872-6.144 25.6 0 16.896 6.656 31.744 15.872 37.376-1.536 9.728-2.56 18.944-2.56 29.184 0 102.912 84.48 186.88 188.416 186.88 103.936 0 188.416-83.456 188.416-186.88 0-8.704-1.024-17.408-2.048-26.112 13.824 0 25.088-18.432 25.088-40.448 0-15.872-6.144-29.696-14.336-36.352 10.24-13.824 20.48-30.72 28.16-49.664 20.992-54.784 12.288-111.104 0.512-113.664z"  horiz-adv-x="1024" />

    
    <glyph glyph-name="tuijian" unicode="&#58889;" d="M594.3 358.5l255.2 268.8c19.2 19.6 0.4 50.7-2.8 51.9l0.4 0.4C781.3 755.1 648.9 825.5 518.3 825.5c-244.6 0-443-196.8-443-439.6s198.4-439.6 443-439.6c117.8 0 224.6 45.9 304 120.4 8.4 9.4 27.4 25.6 14 45.9l-242 245.9zM462.9 495.8h-55.4v-54.9h-55.4v54.9h-55.4v54.9h55.4v54.9h55.4v-54.9h55.4v-54.9zM871.3 445.4c-45.9 0-83.1-36.9-83.1-82.4 0-45.5 37.2-82.4 83.1-82.4 45.9 0 83.1 36.9 83.1 82.4 0 45.5-37.2 82.4-83.1 82.4z"  horiz-adv-x="1024" />

    
    <glyph glyph-name="jipiao" unicode="&#59128;" d="M436.906667 853.653333c24.746667 29.973333 67.52 51.626667 105.493333 33.173334 62.826667-31.04 90.24-105.813333 91.413333-172.16 0.106667-70.293333 0.426667-140.586667-0.533333-210.773334 117.546667-105.813333 238.186667-208.106667 356.16-313.386666 13.653333-9.173333 10.56-27.093333 11.52-41.173334 0.533333-34.133333 0.533333-68.48-2.773333-102.506666-38.933333-7.466667-70.293333 21.226667-103.893334 35.413333-90.666667 42.773333-178.56 91.413333-270.506666 131.2 0.853333-60.693333-10.453333-120.64-10.346667-181.226667 22.186667-20.266667 47.36-38.186667 64.853333-62.933333 2.56-29.226667 5.653333-60.266667-4.053333-88.426667-17.386667-12.053333-37.013333 4.266667-54.4 8.533334-22.08 9.706667-46.72 13.333333-67.84 25.28-17.28 8.64-5.973333 27.626667-0.106667 39.68 31.466667-8.426667 61.12-24 93.973334-27.306667-2.773333 44.16-50.56 61.013333-74.88 92.373333 13.973333 81.173333 4.8 164.586667 21.226666 245.226667 33.28 0.32 60.586667-20.053333 89.493334-33.6 91.946667-44.693333 182.933333-91.413333 275.52-134.933333-3.2 26.133333 10.88 60.373333-11.413334 80.746666-116.586667 104.853333-238.4 204.266667-352.64 311.573334 1.493333 75.626667 0.533333 151.36 0.853334 226.986666 1.386667 46.826667-17.386667 93.973333-52.48 125.333334-12.373333 14.08-33.813333 12.053333-50.24 8.426666-39.68-27.306667-62.4-75.84-62.506667-123.52-1.493333-74.986667 1.066667-149.973333-0.746667-224.96 0.213333-19.946667-18.773333-31.04-31.36-43.52-110.186667-94.826667-217.92-192.533333-329.173333-286.186666-2.453333-24.746667-2.56-49.6-1.92-74.453334 88.213333 42.986667 175.573333 87.786667 263.466667 131.413334 30.293333 14.506667 58.773333 34.88 93.12 38.08 5.653333-20.8 9.493333-42.026667 9.706666-63.573334 1.173333-60.373333 13.013333-120.213333 11.52-180.693333-14.08-28.16-43.946667-45.546667-64.96-68.693333-0.426667-6.826667-1.066667-20.693333-1.386666-27.626667 35.2 6.613333 67.84 29.653333 104.533333 24.96 13.653333-7.146667 1.173333-25.706667 1.813333-37.44-47.36-2.88-88-30.4-134.4-37.546667-14.933333 26.773333-13.44 58.666667-9.813333 88.106667 13.013333 29.12 47.573333 41.6 62.613333 69.12 0.746667 60.48-6.08 120.746667-11.413333 180.906667-116.8-54.826667-230.293333-116.8-346.986667-171.84-6.613333 3.413333-13.226667 6.933333-19.946666 10.453333 0.426667 42.88-3.84 85.973333 1.493333 128.64 12.906667 18.026667 31.573333 30.613333 47.786667 45.226667 105.066667 92.373333 210.666667 184.106667 315.733333 276.373333 1.386667 74.24-0.32 148.48 0.64 222.613333 0 46.72 18.346667 92.693333 47.786667 128.64z"  horiz-adv-x="1024" />

    
    <glyph glyph-name="weixin" unicode="&#59000;" d="M711.111111 384c-14.222222 0-22.755556-11.377778-22.755555-25.6 0-11.377778 11.377778-22.755556 22.755555-22.755556 17.066667 0 28.444444 11.377778 28.444445 22.755556 0 14.222222-11.377778 25.6-28.444445 25.6z m-372.622222 170.666667c-17.066667 0-36.977778-11.377778-36.977778-28.444445s17.066667-28.444444 36.977778-28.444444c8.533333 0 14.222222 2.844444 19.911111 8.533333 5.688889 5.688889 8.533333 14.222222 8.533333 19.911111 0 8.533333-2.844444 14.222222-8.533333 19.911111-5.688889 5.688889-14.222222 8.533333-19.911111 8.533334z m423.822222-381.155556l17.066667-59.733333-62.577778 36.977778c-25.6-5.688889-48.355556-11.377778-71.111111-11.377778-110.933333 0-199.111111 76.8-199.111111 170.666666s88.177778 170.666667 199.111111 170.666667c105.244444 0 201.955556-76.8 201.955555-170.666667-2.844444-56.888889-36.977778-102.4-85.333333-136.533333z m-347.022222 79.644445c-28.444444 0-56.888889 5.688889-82.488889 14.222222l-85.333333-42.666667 25.6 71.111111c-59.733333 42.666667-93.866667 93.866667-93.866667 159.288889 0 113.777778 108.088889 199.111111 236.088889 199.111111 113.777778 0 219.022222-68.266667 236.088889-164.977778-8.533333 2.844444-14.222222 2.844444-22.755556 2.844445-113.777778 0-201.955556-85.333333-201.955555-187.733333 0-17.066667 2.844444-34.133333 5.688889-51.2h-17.066667zM512 896C230.4 896 0 665.6 0 384s230.4-512 512-512 512 230.4 512 512S793.6 896 512 896z m-8.533333-398.222222c8.533333 0 17.066667 2.844444 22.755555 8.533333 5.688889 5.688889 8.533333 14.222222 8.533334 19.911111 0 8.533333-2.844444 17.066667-8.533334 22.755556-8.533333 2.844444-14.222222 5.688889-22.755555 5.688889-17.066667 0-34.133333-11.377778-34.133334-28.444445s17.066667-28.444444 34.133334-28.444444z m76.8-113.777778c-14.222222 0-22.755556-11.377778-22.755556-25.6 0-11.377778 11.377778-19.911111 22.755556-22.755556 17.066667 0 28.444444 11.377778 28.444444 22.755556 0 14.222222-11.377778 25.6-28.444444 25.6z"  horiz-adv-x="1024" />

    
    <glyph glyph-name="anquan" unicode="&#58920;" d="M934.177899 157.359612L880.430678 204.964294c-12.796958 10.237566 5.118783 30.712698 17.91574 20.475132l53.747222-48.628439c7.678175-7.678175 12.796958-15.356349 7.678174-25.593915a515.461449 515.461449 0 0 0-81.900528-123.106731c-12.796958-15.356349-30.712698 5.118783-20.475132 17.91574a472.463672 472.463672 0 0 1 76.781745 110.309774zM435.096556 890.625278A503.432309 503.432309 0 0 1 101.095964 687.921471 505.9917 505.9917 0 0 1 6.398479 307.339954a496.010074 496.010074 0 0 1 201.935989-334.51247 501.896674 501.896674 0 0 1 378.278065-94.953425 506.759518 506.759518 0 0 1 250.564428 110.309774c17.915741 15.356349 0 33.27209-12.796957 23.034524a469.136463 469.136463 0 0 0-240.326863-107.750383 480.909664 480.909664 0 0 0-549.501356 409.502641A481.677481 481.677481 0 0 0 123.874549 675.124513a489.099717 489.099717 0 0 0 319.667999 192.210302 477.838394 477.838394 0 0 0 360.106384-89.578703 482.957177 482.957177 0 0 0 189.139033-315.317033l-74.222354-10.237566a31.736455 31.736455 0 0 1-20.475132-15.356349 25.593915 25.593915 0 0 1 5.118783-25.593915l81.900528-97.512816a20.475132 20.475132 0 0 1 35.831481 10.237566 505.9917 505.9917 0 0 1-2.559391 138.46308A496.010074 496.010074 0 0 1 816.44589 798.231245 530.30592 530.30592 0 0 1 435.096556 890.625278zM622.188075 449.642122v2.559391L507.271396 512.091274l-114.916678-58.866004V330.374477l114.916678-58.866004 114.916679 58.866004V449.642122z m-232.648688-17.915741l81.900528-40.950264-81.900528-40.950264z m117.47607 58.866005l81.900528-40.950264L507.271396 409.715614zM484.236873 409.715614l-81.900528 40.950264 81.900528 40.950264z m0-35.831481v-84.715859l-81.900528 40.950264z m23.034523 0L588.660046 332.933869l-81.900528-40.950264z m10.237566 17.915741l81.900528 40.950264v-84.715859zM709.207386 565.070678c0 2.559392-2.559392 5.118783-2.559392 7.678175a9.469749 9.469749 0 0 1-7.678174 2.559391 351.148514 351.148514 0 0 0-194.257815 58.866005 11.261323 11.261323 0 0 1-12.796958 0c-5.118783-2.559392-94.441547-63.984788-194.257815-58.866005a8.95787 8.95787 0 0 1-10.237566-10.237566v-215.244825a133.600237 133.600237 0 0 1 25.593915-79.597076c2.559392-2.559392 7.678175-10.237566 25.593915-30.712698a983.062277 983.062277 0 0 1 81.900528-69.103571l38.390873-28.153306a62.449153 62.449153 0 0 1 40.950264-15.356349 57.842248 57.842248 0 0 1 40.950264 15.356349l38.390873 28.153306c2.559392 2.559392 61.425396 51.18783 81.900528 69.103571a227.273966 227.273966 0 0 1 25.593915 30.712698 153.56349 153.56349 0 0 1 25.593915 79.597076c-2.559392 2.559392-2.559392 164.056995-2.559392 215.244825z m-25.593915-215.244825a134.623993 134.623993 0 0 0-20.475132-66.544179c-2.559392-2.559392-7.678175-7.678175-23.034524-25.593915a988.436999 988.436999 0 0 0-79.341136-66.544179l-38.390873-28.153307a53.491282 53.491282 0 0 0-28.153306-10.237566 38.390873 38.390873 0 0 0-28.153307 10.237566l-38.390873 28.153307a988.436999 988.436999 0 0 0-79.341136 66.544179c-17.915741 17.915741-23.034524 23.034524-23.034524 25.593915a134.623993 134.623993 0 0 0-20.475132 66.544179v202.191929H307.126981a365.737046 365.737046 0 0 1 186.57964 58.866004 365.737046 365.737046 0 0 1 186.579641-58.866004h2.559391c2.559392-58.866005 0-199.888477 0-202.447868z"  horiz-adv-x="1024" />

    
    <glyph glyph-name="mianshuru" unicode="&#59580;" d="M772.096 151.04h-404.48l64 17.408c5.632 1.024 9.728 4.096 12.8 8.704l201.216 245.248c9.728 11.776 7.68 28.16-3.072 37.888l-118.784 103.936c-5.632 4.096-12.8 7.68-19.456 6.656-7.68-1.024-13.824-4.096-18.432-9.728l-201.216-246.272c-3.072-4.096-5.632-9.728-6.656-15.36l-13.824-139.264v-21.504c0-5.632 3.072-8.704 8.704-8.704h499.712c6.656 0 10.752 4.096 10.752 10.752-0.512 6.144-4.608 10.24-11.264 10.24z m-484.352 1.536c-2.048 2.048-2.048 3.072-2.048 5.632l13.824 139.264c0 1.024 0 2.048 1.024 3.072l202.24 246.272c1.024 1.024 2.048 2.048 3.072 2.048 1.024 0 2.048 0 3.072-1.024l117.76-102.912c2.048-2.048 2.048-5.632 1.024-7.68l-200.192-245.248-2.048-2.048-136.192-38.912c-0.512 0-1.536 1.536-1.536 1.536zM695.296 502.784c22.528 28.16 19.456 69.12-6.656 93.184l-45.568 38.912c-10.752 9.728-26.112 15.36-40.96 15.36-19.456 0-37.888-8.704-49.664-23.552l-22.528-28.16 142.848-123.392 22.528 27.648z m-135.168 97.28l8.704 10.752c8.704 9.728 21.504 16.384 34.816 16.384 9.728 0 19.456-3.072 27.136-9.728l44.544-39.936c17.408-15.36 19.456-43.008 4.096-61.44l-8.704-10.752-110.592 94.72zM523.264 851.456c-254.976 0-462.848-207.872-462.848-462.848s207.872-462.848 462.848-462.848S986.112 133.632 986.112 388.608s-207.36 462.848-462.848 462.848z m0-914.432c-248.832 0-451.584 202.752-451.584 451.584s202.752 451.584 451.584 451.584S974.848 637.952 974.848 388.608s-202.24-451.584-451.584-451.584z"  horiz-adv-x="1024" />

    
    <glyph glyph-name="licai" unicode="&#59107;" d="M505.880478 279.458167h-112.701195c-14.278884 0-26.007968 11.729084-26.007968 26.007968s11.729084 26.007968 26.007968 26.007969h110.661354l-94.342629 94.342629c-9.689243 10.709163-9.179283 27.027888 1.52988 36.717132 10.199203 9.179283 25.498008 9.179283 35.697212 0l85.673306-85.673307 85.673307 85.673307c9.689243 10.709163 26.007968 11.219124 36.717132 1.52988 10.709163-9.689243 11.219124-26.007968 1.52988-36.717131l-1.52988-1.529881-94.34263-94.342629h110.661355c14.278884 0 26.007968-11.729084 26.007968-26.007969s-11.729084-26.007968-26.007968-26.007968h-112.701195V227.442231h112.701195c14.278884 0 26.007968-11.729084 26.007968-26.007968s-11.729084-26.007968-26.007968-26.007968h-112.701195v-112.701195c0-14.278884-11.729084-26.007968-26.007969-26.007969s-26.007968 11.729084-26.007968 26.007969v112.701195h-112.701195c-14.278884 0-26.007968 11.729084-26.007968 26.007968s11.729084 26.007968 26.007968 26.007968h112.701195v52.015936h-0.50996z m-167.266932 416.12749l-41.816733 113.721116c-22.948207 41.816733 9.179283 80.573705 56.095617 67.314741l53.545817-14.788845c13.258964-2.549801 26.517928-1.01992 38.756972 3.569721l41.306773 19.888447c29.067729 12.749004 62.215139 12.749004 90.772908 0l40.796813-19.888447c12.239044-4.589641 26.007968-6.119522 38.756972-3.569721l53.545817 14.788845c46.916335 12.749004 79.043825-25.498008 56.095618-67.314741l-42.326694-114.231076 1.019921-1.01992c10.709163-10.709163 69.354582-67.824701 86.693227-85.163347 112.701195-113.721116 169.816733-213.673307 169.816733-341.673306 0-221.832669-196.334661-395.219124-450.804781-395.219124s-450.804781 173.386454-450.804781 395.219124c0 125.450199 57.625498 225.40239 169.306773 340.653386 18.868526 19.378486 79.043825 78.023904 86.693227 86.693227l2.549801 1.01992z m46.916334-23.458167c-1.52988-2.549801-3.569721-5.099602-5.609561-7.649402-9.179283-9.179283-73.434263-70.884462-91.282869-90.262949-107.091633-108.621514-159.10757-199.394422-159.10757-308.525896 0-192.25498 172.876494-344.223108 402.868526-344.223108s402.868526 151.968127 402.868526 344.223108c0 111.681275-51.505976 201.434263-158.087649 309.035857-18.358566 18.358566-79.553785 77.513944-91.282869 89.752988-2.549801 2.039841-5.099602 4.589641-6.629482 7.649402h-293.737052z m319.23506 146.868526l-13.258964-3.569721c-29.067729-7.139442-75.474104-9.179283-103.011952 2.549801l-41.306773 19.888446c-9.689243 3.569721-20.398406 3.569721-30.087649 0l-41.306773-19.888446c-27.537849-12.239044-73.944223-9.689243-103.011953-2.549801l-13.258964 3.569721 28.557769-97.402391h288.63745l28.047809 97.402391z"  horiz-adv-x="1063" />

    
    <glyph glyph-name="lipinqia" unicode="&#58882;" d="M850.178139 63.348026H170.914648c-59.038628 0-107.077737 48.038086-107.077737 107.077737V600.524428c0 59.038628 48.038086 107.077737 107.077737 107.077738h679.263491c59.038628 0 107.077737-48.038086 107.077738-107.077738v-430.098665c0-59.039651-48.039109-107.077737-107.077738-107.077737zM170.914648 664.770661c-35.427884 0-64.246233-28.819372-64.246233-64.246233v-430.098665c0-35.427884 28.819372-64.246233 64.246233-64.246233h679.263491c35.427884 0 64.246233 28.819372 64.246233 64.246233V600.524428c0 35.427884-28.819372 64.246233-64.246233 64.246233H170.914648zM932.273902 449.716724h-837.883115c-11.82635 0-21.415752 9.589402-21.415752 21.415752s9.588379 21.415752 21.415752 21.415752h837.883115c11.82635 0 21.415752-9.589402 21.415752-21.415752s-9.588379-21.415752-21.415752-21.415752zM388.855332 63.348026c-11.82635 0-21.415752 9.578146-21.415752 21.415752V686.186414c0 11.82635 9.589402 21.415752 21.415752 21.415752s21.415752-9.588379 21.415752-21.415752v-601.422636c0-11.837606-9.589402-21.415752-21.415752-21.415752zM510.185678 362.276233a21.272489 21.272489 0 0 0-12.663414 4.161786L254.819616 544.894434c-9.525957 7.005554-11.57564 20.411889-4.570085 29.937846 6.995321 9.525957 20.411889 11.585873 29.937846 4.570085l242.702648-178.455391c9.525957-7.005554 11.57564-20.411889 4.570085-29.937846-4.193509-5.710049-10.686387-8.732895-17.274432-8.732895zM267.524986 362.276233c-6.588045 0-13.081946 3.021823-17.274432 8.731872-7.005554 9.525957-4.956895 22.931269 4.570086 29.937846l242.702647 178.455391c9.515724 7.016811 22.942525 4.956895 29.937846-4.570086 7.005554-9.525957 4.956895-22.931269-4.570085-29.937846L280.1884 366.438019a21.279652 21.279652 0 0 0-12.663414-4.161786z"  horiz-adv-x="1024" />

    
    <glyph glyph-name="iconfontzhongchou" unicode="&#58880;" d="M511.20385897 836.95442046c118.29490725 0 220.37960628-87.92115579 238.29860503-204.12667827 18.72808517 5.8047096 37.88207344 8.74590057 57.03606171 8.74590057 52.94143715 0 101.65879593-21.67186521 135.82942816-57.07748694 34.98101317-34.16933769 56.65158384-82.0763155 56.65158383-135.40223052 0-50.42356021-20.00838352-96.6683509-51.6611388-131.22216645l45.43311518-45.81629849c20.39156685-20.43428661 35.40821081-42.91523824 46.2422016-68.34126444l0 0c9.98347915-24.57292547 15.82702491-51.23523571 15.82702491-79.98563618l0-57.50856818c0-14.54672656-5.41634813-30.79965456-14.16354324-42.91523826-9.59770675-13.30914797-23.33534688-22.48095163-40.82585347-24.57033639-1.66348169 0-3.32696336 0-4.17876953 0l-44.15540591 0 0-16.25422254c0-19.1513992-15.82702491-34.55511008-34.98101319-34.55511008l-1.70620144 0-403.64738938 0L106.66323817-52.07491571000003l-0.8116755 0c-19.19670803 0-35.0224384 15.40241635-35.0224384 34.55511008l0 16.25422254-44.1554059 0c-1.66348169 0-2.47386263 0-4.13734432 0-17.53193182 2.0867957-31.69547504 11.25989389-41.6789542 24.57033639-8.31870293 12.11817277-12.49876702 28.36851168-12.49876702 42.91523826l0 57.50856818c0 28.75040048 4.56454195 55.41271072 15.01664397 79.98563618l0.8090864 0c18.77080494 47.09659685 56.22568075 79.56361671 90.82351061 114.15885747-32.07865837 34.55511008-52.0870419 80.79731168-52.0870419 131.22216644 0 53.32462048 22.0977683 101.23289283 56.65158384 135.40223052 35.40821081 35.40821081 82.93071075 57.07748693 136.25533124 57.07748693 19.15398827 0 38.30797653-2.94119095 56.22568074-8.74590056C290.3983496 749.03326468 392.44162338 836.95442046 511.20385897 836.95442046L511.20385897 836.95442046zM511.20385897 18.73762228999999L511.20385897 18.73762228999999l108.6972005 0c0 52.08963097 0 105.84015455 0 159.16477503 0 11.21717413 9.59770675 21.24337303 20.86148426 21.24337303 12.07156939 0 21.24337303-10.02619891 21.24337304-21.24337303l0-93.340093 91.20669392 0c0.85439525 1.66348169 1.66348169 5.41634813 1.66348167 8.74590057l0 74.57058258c0 101.23030377-66.63376845 147.47509443-132.45845049 213.29977648-33.31882604-17.49050658-71.24103017-27.47139666-111.21507744-27.47139666-40.44137561 0-78.32344905 9.98218462-111.68240576 27.47139666-65.39877893-65.82468204-132.02995831-112.06688364-132.02995833-213.29977648l0-74.57058258c0-3.32696336 0.80908642-7.07982981 0.80908641-8.74590057l91.67661133 0 0 93.340093c0 11.21717413 9.17180365 21.24337303 20.81746994 21.24337303 12.07286391 0 21.24596211-10.02619891 21.24596211-21.24337303 0-53.32462048 0-107.07514405 0-159.16477503L511.20385897 18.73762228999999 511.20385897 18.73762228999999zM511.20385897 424.51841076L511.20385897 424.51841076c92.87276468 0 170.76772157 75.37966901 170.76772156 170.81044132 0 94.53365728-76.23406427 170.81044133-170.76772156 170.81044131-94.57637705 0-171.23634442-76.27678403-171.23634442-170.81044131C339.96751455 499.89937431 418.29225813 424.51841076 511.20385897 424.51841076L511.20385897 424.51841076zM141.64425134 18.73762228999999L141.64425134 18.73762228999999l102.51060211 0c-13.35186773 3.75286645-24.18974213 12.9246701-32.07865837 23.76124998-10.02619891 14.58944631-15.39853275 32.89162841-15.39853273 50.80674354l0 74.57058259c0 31.26957195 4.99044503 61.25884555 14.54672655 88.30563366-28.32579191 1.70620144-54.56219907 7.50832197-78.70792692 19.19670803-29.60609027-29.18018718-68.34126444-59.16946078-84.16828934-97.47484824-6.65392672-16.6827147-9.98218462-34.59912438-9.98218461-54.17901574l0-54.99069123 61.21742032 0L99.58340835 131.65631210000004c0 11.2197632 9.59770675 20.81746995 20.81746995 20.81746995 11.68968059 0 21.24596211-9.59770675 21.24596212-20.81746995l0-112.91868981L141.64425134 18.73762228999999zM272.48064537 556.9768612400001L272.48064537 556.9768612400001c-5.84225122 3.32696336-13.35316227 6.27074338-20.00838352 8.36012815-11.64566629 3.71144123-24.1444333 5.41634813-36.64449486 5.41634813-33.74472912 0-64.58710345-12.9246701-86.2576741-36.26001698-22.05375399-21.24596211-35.40821081-51.66113881-35.40821081-85.40457339s13.35316227-64.58710345 35.40821081-85.83177103c21.67186521-22.48095163 52.51553406-35.40821081 86.2576741-35.4082108 13.30914797 0 26.23640715 1.23757858 39.16237179 5.41634812 25.38201189 32.07865837 57.89045697 60.40574483 87.06805509 89.96911534C305.79688233 459.92791609 281.22654594 506.17011769 272.48064537 556.9768612400001L272.48064537 556.9768612400001zM880.29872735 18.73762228999999L880.29872735 18.73762228999999l0 112.91998435c0 11.2197632 9.60029582 20.81746995 20.81746995 20.81746995 12.07286391 0 21.67186521-9.59770675 21.6718652-20.81746995l0-62.92232722 61.25884555 0 0 54.99069123c0 19.57989136-3.75286645 37.49630103-10.02619891 54.17901575-6.65392672 15.82443583-17.49050658 30.79965456-31.22555765 44.5347056l-52.89871739 52.94143717c-24.18844761-11.68968059-50.85205238-17.49050658-79.17784432-19.19670803 9.98218462-27.04678811 15.01664395-57.03606171 15.01664396-88.30563367l0-74.57058258c0-17.91640969-5.8448403-36.21859177-15.82702491-50.80674355-7.93422507-10.83528533-18.77080494-20.00838352-31.69547505-23.76124998l102.08469902 0L880.2974328 18.73762228999999zM749.502464 556.9768612400001L749.502464 556.9768612400001c-9.59770675-53.75052357-31.26957195-95.81136656-69.19307061-133.7374543 28.75169502-29.56337051 60.83294245-57.89045697 87.06805506-89.96911534 3.36968311-0.80908642 11.68968059-3.75286645 14.59074086-3.75286644 7.5057329-0.80908642 16.252928-1.66348169 24.5703364-1.66348169 33.35895671 0 64.16120035 12.9246701 86.25767411 35.40821081 22.05504853 21.24596211 36.26001698 52.0870419 36.26001698 85.83177102 0 33.74472912-14.20496845 64.16120035-36.26001698 85.40457339-22.0977683 23.33534688-52.89871739 36.26001698-86.25767411 36.26001699-13.30914797 0-25.38201189-1.70620144-36.64449486-5.41634812C762.38570889 563.24760462 756.58488288 560.30382459 749.502464 556.9768612400001L749.502464 556.9768612400001z"  horiz-adv-x="1024" />

    
    <glyph glyph-name="xiangji" unicode="&#58881;" d="M511.999 585.175c-131.453 0-238.4-106.947-238.4-238.47 0.289-131.127 107.208-238.046 238.334-238.335H512c131.455 0 238.402 106.947 238.402 238.4 0 131.458-106.946 238.405-238.402 238.405z m0.014-418.79c-99.255 0.25-180.18 81.186-180.4 180.385 0 99.469 80.92 180.39 180.386 180.39s180.388-80.921 180.388-180.39c0-99.46-80.913-180.377-180.374-180.385zM865.643 681.804H726.048l-64.214 68.404a18.624 18.624 0 0 1-13.515 6.05H375.438a18.612 18.612 0 0 1-13.735-6.05l-63.75-68.404h-139.6c-51.394 0-93.062-41.665-93.062-93.064v-483.937a93.068 93.068 0 0 1 93.063-93.063h707.29c51.398 0 93.066 41.664 93.066 93.062v483.94c-0.001 51.398-41.669 93.062-93.067 93.062z m35.052-577c0-19.326-15.724-35.048-35.053-35.048H158.354c-9.362 0-18.163 3.646-24.784 10.266-6.62 6.62-10.266 15.421-10.266 24.782V588.741c0 19.326 15.723 35.05 35.049 35.05h164.834l17.205 18.46 52.182 55.993h238.47l52.706-56.146 17.186-18.308h164.706c19.329 0 35.053-15.723 35.053-35.049v-483.937zM829.815 551.961a27.917 27.917 0 0 1-27.918 0 27.918 27.918 0 0 1-13.962-24.18c0-15.417 12.5-27.918 27.92-27.918 15.419 0 27.918 12.5 27.918 27.918a27.92 27.92 0 0 1-13.958 24.18z"  horiz-adv-x="1024" />

    
    <glyph glyph-name="dingwei" unicode="&#58883;" d="M512.06564359 506.13114501a67.61022143 67.61022143 0 1 0-48.06027779-19.95723411A67.61022143 67.61022143 0 0 0 512.06564359 506.13114501m0 40.72904918a108.74656109 108.74656109 0 1 1 76.97790309-31.76865863A107.93198013 107.93198013 0 0 1 512.06564359 546.86019419zM698.60468874 630.7620354200001a259.44404279 259.44404279 0 0 1-373.07808965 0 274.51379116 274.51379116 0 0 1 0-381.63119033L512.06564359 58.111604690000036l186.53904515 191.0192404a274.51379116 274.51379116 0 0 1 0 381.63119033z m-28.10304369-354.75001807l-158.43600144-162.91619608-158.43600083 162.91619608a232.56287054 232.56287054 0 0 0 0 323.7959404 220.75144601 220.75144601 0 0 0 316.87200227 0 232.56287054 232.56287054 0 0 0 0-323.7959404z"  horiz-adv-x="1024" />

    
    <glyph glyph-name="fangdajing" unicode="&#59040;" d="M851.4048 86.58944l-152.27392 152.61184c42.57792 52.15744 68.16256 118.77888 68.16256 191.38048 0 166.74816-135.28576 302.4896-301.73184 302.4896-166.4256 0-301.76768-135.74144-301.76768-302.4896 0-166.77888 135.4496-302.48448 301.76768-302.48448 72.3712 0 138.76224 25.68704 190.88384 68.34688l152.27392-152.62208a29.9008 29.9008 0 0 1 21.28896-8.88832 30.1568 30.1568 0 0 1 21.39648 8.88832 30.3616 30.3616 0 0 1 0 42.76736zM224.14336 430.58176c0 133.44768 108.28288 241.9712 241.41312 241.9712 133.14048 0 241.37728-108.5184 241.37728-241.9712 0-133.4784-108.2368-241.9712-241.37728-241.9712-133.12512 0-241.41312 108.48768-241.41312 241.9712z"  horiz-adv-x="1024" />

    
    <glyph glyph-name="jiudian" unicode="&#58921;" d="M214.2-27.32h436.9v729.7H214.2v-729.7z m543.92-13.57h188.23V374.53H758.12v-415.42zM991.66-22.66H972.8V428.86c0 47.25-39.02 85.7-86.98 85.7H686.95V758.38c0 47.26-34.17 85.7-82.13 85.7h-466.2c-47.97 0-86.99-38.44-86.99-85.7v-781.67H32.34c-17.89 0-32.33-9.1-32.33-26.73 0-17.63 14.44-22.28 32.33-22.28h959.33c17.89 0 32.33 6.55 32.33 24.18 0.01 17.64-14.43 25.46-32.34 25.46M885.71 466.41c12.07 0 40.16-10.08 40.16-21.97v-467.1H686.94V466.41M100.66 773.58c0 12.38 15.78 22.88 28.34 22.88h485.23c12.57 0 28.35-10.5 28.35-22.88v-798.26H100.55M293.85 565.43h-88.61c-17.8 0-32.18-14.08-32.18-31.53 0-17.45 14.37-31.53 32.18-31.53h88.6c17.8 0 32.18 14.08 32.18 31.53 0 17.44-14.48 31.53-32.17 31.53m234.38 0h-88.6c-17.81 0-32.19-14.08-32.19-31.53 0-17.45 14.37-31.53 32.19-31.53h88.6c17.8 0 32.17 14.08 32.17 31.53 0 17.44-14.47 31.53-32.17 31.53M293.85 415.87h-88.61c-17.75 0.02-32.16-14.06-32.18-31.45v-0.09c-0.03-17.38 14.34-31.5 32.09-31.53h88.7c17.75-0.02 32.16 14.07 32.18 31.46v0.08c-0.01 17.44-14.49 31.53-32.18 31.53m234.38 0h-88.6c-17.76 0.02-32.16-14.06-32.19-31.45v-0.09c-0.02-17.38 14.35-31.51 32.1-31.53h88.68c17.74-0.02 32.16 14.07 32.17 31.46v0.08c0 17.4-14.4 31.51-32.16 31.53M293.85 266.3h-88.61c-17.75 0.03-32.16-14.04-32.18-31.43v-0.1c-0.02-17.38 14.35-31.5 32.1-31.52h88.68c17.75-0.03 32.16 14.05 32.18 31.44v0.08c-0.01 17.41-14.41 31.52-32.17 31.53m234.38 0h-88.6c-17.75 0.03-32.16-14.04-32.19-31.43v-0.1c-0.02-17.38 14.35-31.5 32.1-31.52h88.68c17.75-0.02 32.16 14.06 32.17 31.45v0.07c0 17.41-14.39 31.52-32.16 31.53m216.25 13.77h88.6c17.75-0.03 32.16 14.06 32.18 31.46v0.08c0.02 17.39-14.34 31.5-32.08 31.53h-88.71c-17.74 0.02-32.16-14.06-32.17-31.45v-0.08c0.02-17.41 14.42-31.53 32.18-31.54m88.6-117.49h-88.6c-17.75 0.02-32.16-14.07-32.17-31.46v-0.09c-0.02-17.38 14.34-31.49 32.09-31.51h88.69c17.75-0.03 32.16 14.04 32.18 31.42v0.09c0.02 17.4-14.34 31.52-32.1 31.56h-0.09"  horiz-adv-x="1024" />

    
    <glyph glyph-name="fenzu" unicode="&#58884;" d="M136.533333 261.75390500000003C136.533333 328.411429 169.935238 414.086095 229.571048 516.4373330000001c23.747048 40.706438 51.326781 83.412114 81.978514 127.405105A2906.199771 2906.199771 0 0 0 429.173029 800.416914a2774.250057 2774.250057 0 0 0 49.659123 60.172191l3.969219 4.632381L507.240838 893.366857l24.517486-28.145371 3.959466-4.642134c3.140267-3.666895 6.787657-7.9872 10.942172-12.873142a3313.176381 3313.176381 0 0 0 38.785219-47.289296 2940.362362 2940.362362 0 0 0 117.613714-156.574476c30.593219-43.99299 58.172952-86.698667 81.92-127.405105 59.63581-102.351238 93.037714-188.025905 93.037715-254.683428 0-210.690438-165.800229-381.834971-370.775772-381.834972C302.343314-120.08106699999996 136.533333 51.063466999999946 136.533333 261.75390500000003m343.186286 497.566476a2801.859048 2801.859048 0 0 1-114.922057-153.102629c-29.696-42.569143-56.32-83.792457-79.160076-122.958019-54.203733-92.94019-84.085029-169.662171-84.085029-221.505828 0-174.947962 137.069714-316.386743 305.688381-316.386743 168.686933 0 305.7664 141.438781 305.7664 316.386743 0 51.843657-29.891048 128.565638-84.094781 221.505828-22.840076 39.165562-49.464076 80.388876-79.091809 122.958019a2869.150476 2869.150476 0 0 1-114.93181 153.112381 4546.998857 4546.998857 0 0 1-27.648 33.811505c-8.572343-10.435048-17.788343-21.7088-27.511467-33.811505M507.270095-6.3975619999999935c-142.833371 0-258.6624 116.90179-258.6624 261.246781 0 144.286476 134.456076 71.241143 258.6624 0 124.781714-71.553219 258.6624 144.286476 258.6624 0 0-144.335238-115.829029-261.246781-258.6624-261.246781"  horiz-adv-x="1024" />

    
    <glyph glyph-name="lijizhuce" unicode="&#58976;" d="M0 384c0-283.733 228.267-512 512-512s512 228.267 512 512S795.733 896 512 896 0 667.733 0 384z m405.333 305.067l275.2-275.2c8.534-8.534 12.8-19.2 10.667-29.867 0-10.667-4.267-21.333-10.667-29.867l-275.2-275.2C390.4 64 364.8 64 349.867 78.933L345.6 83.2c-14.933 14.933-14.933 40.533 0 55.467L588.8 384 343.467 629.333c-14.934 14.934-14.934 40.534 0 55.467l4.266 4.267c14.934 14.933 40.534 14.933 57.6 0z"  horiz-adv-x="1024" />

    
    <glyph glyph-name="huafei" unicode="&#59313;" d="M85.333333 827.605333v-887.210666C85.333333-97.365333 115.968-128 153.728-128h682.410667c37.76 0 68.394667 30.634667 68.394666 68.394667V827.605333C904.533333 865.408 873.898667 896 836.138667 896H153.728C115.968 896 85.333333 865.408 85.333333 827.605333M733.738667-25.6H256.128A68.394667 68.394667 0 0 0 187.733333 42.794667V725.205333c0 37.802667 30.634667 68.394667 68.394667 68.394667h477.610667c37.76 0 68.394667-30.592 68.394666-68.394667v-682.410666c0-37.76-30.634667-68.394667-68.394666-68.394667M580.266667 128c0-47.189333-38.144-85.333333-85.333334-85.333333-47.189333 0-85.333333 38.144-85.333333 85.333333 0 47.189333 38.144 85.333333 85.333333 85.333333 47.189333 0 85.333333-38.144 85.333334-85.333333"  horiz-adv-x="1024" />

    
    <glyph glyph-name="qiye" unicode="&#59112;" d="M209.197755 756.53483m69.732585 0l348.662926 0q69.732585 0 69.732585-69.732585l0-697.325851q0-69.732585-69.732585-69.732585l-348.662926 0q-69.732585 0-69.732585 69.732585l0 697.325851q0 69.732585 69.732585 69.732585ZM697.325851 617.06966m69.732585 0l209.197755 0q69.732585 0 69.732585-69.732585l0-557.860681q0-69.732585-69.732585-69.732585l-209.197755 0q-69.732585 0-69.732585 69.732585l0 557.860681q0 69.732585 69.732585 69.732585ZM627.593266 896a69.732585 69.732585 0 0 0 69.732585-69.732585v-906.523606H69.732585V826.267415a69.732585 69.732585 0 0 0 69.732585 69.732585h488.128096z m0-906.523606V826.267415H139.46517v-836.791021h488.128096zM976.256191 686.802245a69.732585 69.732585 0 0 0 69.732585-69.732585v-697.325851H627.593266V686.802245h348.662925z m0-697.325851V617.06966h-278.93034v-627.593266h278.93034zM418.39551 686.802245m34.866293 0l69.732585 0q34.866293 0 34.866293-34.866293l0 0q0-34.866293-34.866293-34.866292l-69.732585 0q-34.866293 0-34.866293 34.866292l0 0q0 34.866293 34.866293 34.866293ZM871.657313 512.470782m0-34.866292l0-69.732585q0-34.866293-34.866292-34.866293l0 0q-34.866293 0-34.866293 34.866293l0 69.732585q0 34.866293 34.866293 34.866292l0 0q34.866293 0 34.866292-34.866292ZM209.197755 547.337075m34.866293 0l69.732585 0q34.866293 0 34.866292-34.866293l0 0q0-34.866293-34.866292-34.866292l-69.732585 0q-34.866293 0-34.866293 34.866292l0 0q0 34.866293 34.866293 34.866293ZM209.197755 407.871905m34.866293 0l69.732585 0q34.866293 0 34.866292-34.866293l0 0q0-34.866293-34.866292-34.866293l-69.732585 0q-34.866293 0-34.866293 34.866293l0 0q0 34.866293 34.866293 34.866293ZM209.197755 686.802245m34.866293 0l69.732585 0q34.866293 0 34.866292-34.866293l0 0q0-34.866293-34.866292-34.866292l-69.732585 0q-34.866293 0-34.866293 34.866292l0 0q0 34.866293 34.866293 34.866293ZM871.657313 303.273027m0-34.866293l0-69.732585q0-34.866293-34.866292-34.866292l0 0q-34.866293 0-34.866293 34.866292l0 69.732585q0 34.866293 34.866293 34.866293l0 0q34.866293 0 34.866292-34.866293ZM418.39551 547.337075m34.866293 0l69.732585 0q34.866293 0 34.866293-34.866293l0 0q0-34.866293-34.866293-34.866292l-69.732585 0q-34.866293 0-34.866293 34.866292l0 0q0 34.866293 34.866293 34.866293ZM418.39551 407.871905m34.866293 0l69.732585 0q34.866293 0 34.866293-34.866293l0 0q0-34.866293-34.866293-34.866293l-69.732585 0q-34.866293 0-34.866293 34.866293l0 0q0 34.866293 34.866293 34.866293ZM0-10.523606m34.866293 0l1045.988776 0q34.866293 0 34.866292-34.866292l0 0q0-34.866293-34.866292-34.866293l-1045.988776 0q-34.866293 0-34.866293 34.866293l0 0q0 34.866293 34.866293 34.866292Z"  horiz-adv-x="1170" />

    
    <glyph glyph-name="gengkuai_huaban" unicode="&#58930;" d="M435.420193 336.089592h-112.31311a20.925706 20.925706 0 0 0-19.566126 28.43295l111.603764 293.373665a20.925706 20.925706 0 0 0 19.566126 13.536686h188.626912a20.984818 20.984818 0 0 0 19.38879-28.905848l-65.02338-159.60284h122.539514a20.984818 20.984818 0 0 0 15.723836-34.817064l-300.408013-342.259424a20.925706 20.925706 0 0 0-35.999307 19.152341zM449.252439 629.463257L353.313398 378.000115h109.357502a20.925706 20.925706 0 0 0 20.21636-26.304912l-40.018935-151.268025 211.030422 240.468279H546.491947a20.984818 20.984818 0 0 0-19.447902 28.846735l65.02338 159.602841z m0 0M511.556659-126.167523A511.083761 511.083761 0 1 0 1022.64042 384.916239a511.674883 511.674883 0 0 0-511.083761-511.083762z m0 974.877793A463.794031 463.794031 0 1 1 975.35069 384.916239 464.326041 464.326041 0 0 1 511.556659 848.71027z"  horiz-adv-x="1024" />

    
    <glyph glyph-name="huihua" unicode="&#58899;" d="M900.87424 784.2048H299.31008c-49.76128 0-90.34752-42.09664-90.34752-93.80864v-500.54144c0-51.76832 40.52992-93.87008 90.2912-93.87008h198.12352l81.46944-84.69504q0.44544-0.46592 0.91136-0.91648a29.40928 29.40928 0 0 1 41.5744 0.91648l81.4592 84.69504h198.08256c49.75616 0 90.2912 42.10176 90.2912 93.87008V690.39616c0 51.712-40.53504 93.80864-90.2912 93.80864z m30.18752-594.35008a30.7456 30.7456 0 0 0-30.13632-31.30368H690.3296a29.40416 29.40416 0 0 1-21.248-9.16992l-68.98688-71.7312L538.368 141.824a29.92128 29.92128 0 0 1-26.60864 16.72192H299.31008a30.73536 30.73536 0 0 0-30.13632 31.3088V690.39616a30.75072 30.75072 0 0 0 30.13632 31.3088h601.61536a30.7456 30.7456 0 0 0 30.13632-31.3088zM427.33568 482.1248a46.95552 46.95552 0 0 1 0-93.84448v-0.0512a46.98624 46.98624 0 0 1 0 93.9008zM607.81056 482.1248a46.95552 46.95552 0 0 1 0.05632-93.84448l-0.0512-0.0512a46.98624 46.98624 0 0 1 0 93.9008zM788.29056 482.1248a46.95552 46.95552 0 0 1 0-93.84448v-0.0512a46.98624 46.98624 0 0 1 0 93.9008z"  horiz-adv-x="1169" />

    
    <glyph glyph-name="huochepiao" unicode="&#59164;" d="M733.104108 372.805605c-33.94956 0-61.627571-28.317965-61.62757-62.875481 0-34.589514 27.678011-62.907479 61.62757-62.907479s61.627571 28.317965 61.627571 62.907479c0 34.557516-27.678011 62.875481-61.627571 62.875481z m61.627571 271.660474c0 23.262328-18.238689 42.140971-40.861063 42.140971H261.458008c-22.622374 0-40.861063-18.878643-40.861063-42.140971v-167.283976c0-23.262328 18.238689-42.140971 40.861063-42.140972H753.902613c22.622374 0 40.861063 18.878643 40.861063 42.140972V644.498077zM281.616559 247.054643c33.981558 0 61.627571 28.285967 61.62757 62.875481 0 34.557516-27.646013 62.875481-61.62757 62.875481-33.917562 0-61.627571-28.317965-61.627571-62.875481 0.639954-34.589514 27.678011-62.907479 61.627571-62.907479z m616.915659-369.797421a38.365242 38.365242 0 0 0-52.828203 14.462961l-84.281942 148.405333c-6.911503-1.24791-14.46296-1.887864-21.374464-1.887864H275.920968c-7.51946 0-14.46296 0.639954-21.374464 1.919862l-84.249944-148.437331c-10.687232-18.878643-34.589514-25.150192-52.828203-14.462961-18.878643 10.687232-25.150192 35.19747-14.462961 54.076113l78.61835 138.358056c-41.533015 30.173831-66.683207 80.506214-62.907479 136.470191l29.565875 450.239639c5.023639 75.482575 52.796205 135.222281 133.942373 135.222281h123.255141C405.447658 849.475344 451.396356 896 507.96829 896c56.635929 0 102.520631-46.524656 102.520631-104.376498h143.349697c81.754124 0 108.152227-59.739706 113.207863-135.222281l29.565875-450.239639c3.775729-55.995975-21.374464-106.29636-62.875481-136.470191l78.586352-138.358056c10.687232-19.486599 4.415683-43.388881-13.823007-54.076113zM323.085578-23.997875h369.157467c11.295188 0 20.73451-9.439322 20.73451-20.766508v-20.734509a20.926496 20.926496 0 0 0-20.73451-20.766508H323.085578a20.926496 20.926496 0 0 0-20.734509 20.766508v20.734509c0 11.327186 9.439322 20.766507 20.734509 20.766508z"  horiz-adv-x="1024" />

    
    <glyph glyph-name="che-copy" unicode="&#58885;" d="M1005.94270776 98.96922112000004H265.53154332c-21.94242333 0-42.52558222 8.54395221-57.86585999 24.0784111-15.3402789 15.53445888-23.88423111 35.92343666-23.69005112 57.86586112l2.71853112 545.25952c0 21.74824334-7.57304889 36.3117989-45.24411334 42.3314011h-0.19417999l-108.74121557 18.64135111c-10.48576 1.74762667-17.67044779 11.84502557-15.92281998 22.33078557 1.74762667 10.48576 11.84502557 17.67044779 22.33078442 15.92282112l108.54703446-18.64135112c51.65207666-8.15559111 77.86647666-35.34089443 77.86647666-80.7791889L222.61759999 180.52513223999995c0-11.45666333 4.27197667-22.13660445 12.42756779-30.09801558 8.15559111-8.15559111 18.83553223-12.62174777 30.29219555-12.62174777h740.41116445c10.67994112 0 19.41807445-8.73813333 19.41807331-19.41807445s-8.54395221-19.41807445-19.22389333-19.41807332zM950.60119665 210.42896555000004l-685.65219556 2.13598891c-21.55406222 0.19418112-41.74885888 8.54395221-56.89495665 23.88423111-15.14609778 15.3402789-23.30168889 35.53507555-23.30168889 57.08913777l2.13598777 402.73085554L962.64040333 638.4033188999999c35.14671445-1.35926557 62.72037888-29.90383445 62.72037888-65.0505489V284.99437c0-41.16631666-33.59326777-74.56540445-74.75958556-74.56540445zM265.33736333 251.40110221999998l685.45801444-2.13598776c19.80643555 0 35.92343666 16.1170011 35.92343666 35.72925554V573.35277c0 14.17519445-11.26248334 25.8260389-25.43767666 26.2144h-0.77672334l-734.58574222 54.75896888-1.74762667-361.17617778c0-11.06830222 4.27197667-21.55406222 12.03920669-29.51547221 7.37886777-7.76723001 17.86462777-12.23338667 29.1271111-12.23338667zM340.87367111 34.889576680000005m-72.42941668 0a72.42941667 72.42941667 0 1 1 144.85883335 0 72.42941667 72.42941667 0 1 1-144.85883335 0ZM340.87367111-56.957914449999976c-50.68117333 0-91.84748999 41.16631666-91.84749 91.84749113s41.16631666 91.84748999 91.84749 91.84748999c50.68117333 0 91.84748999-41.16631666 91.84748998-91.84748999s-41.16631666-91.84748999-91.84748998-91.84749113z m0 144.85883335c-29.32129223 0-53.01134222-23.69004999-53.01134223-53.01134222s23.69004999-53.01134222 53.01134223-53.01134222 53.01134222 23.69004999 53.01134222 53.01134222-23.69004999 53.01134222-53.01134222 53.01134222zM896.81313223 34.889576680000005m-72.42941668 0a72.42941667 72.42941667 0 1 1 144.85883221 0 72.42941667 72.42941667 0 1 1-144.85883221 0ZM896.81313223-56.957914449999976c-50.68117333 0-91.84748999 41.16631666-91.84749114 91.84749113s41.16631666 91.84748999 91.84749114 91.84748999 91.84748999-41.16631666 91.84748998-91.84748999-41.16631666-91.84748999-91.84748998-91.84749113z m0 144.85883335c-29.32129223 0-53.01134222-23.69004999-53.01134223-53.01134222s23.69004999-53.01134222 53.01134223-53.01134222 53.01134222 23.69004999 53.01134222 53.01134222-23.69004999 53.01134222-53.01134222 53.01134222zM780.30468778 469.66025444H384.56433777c-10.67994112 0-19.41807445 8.73813333-19.41807445 19.41807445s8.73813333 19.41807445 19.41807445 19.41807445h395.74035001c10.67994112 0 19.41807445-8.73813333 19.41807331-19.41807445s-8.73813333-19.41807445-19.41807331-19.41807445zM780.30468778 358.00632888999996H384.56433777c-10.67994112 0-19.41807445 8.73813333-19.41807445 19.41807445s8.73813333 19.41807445 19.41807445 19.41807332h395.74035001c10.67994112 0 19.41807445-8.73813333 19.41807331-19.41807332s-8.73813333-19.41807445-19.41807331-19.41807445z"  horiz-adv-x="1024" />

    
    <glyph glyph-name="gantanhao" unicode="&#58954;" d="M510.93786 536.638444c-12.310584 0-22.839844 3.736685-31.587781 11.297072-8.660918 7.560388-13.078396 18.212498-13.078396 32.053587 0 12.484621 4.499378 22.804013 13.416233 30.866037 8.998755 8.113212 19.359097 12.146784 31.244825 12.146785 11.460872 0 21.570395-3.654785 30.400232-10.995067 8.829837-7.350519 13.247314-18.007748 13.247315-32.017755 0-13.585152-4.335578-24.237262-12.904359-31.884669-8.655799-7.642288-18.847222-11.465991-30.738069-11.46599z m43.652665-91.241646v-255.297452c0-17.664792-4.16154-31.040075-12.566521-40.130968-8.4101-9.039705-19.108278-13.585152-32.099655-13.585152-12.909477 0-23.438738 4.678534-31.505882 13.928108-8.067144 9.259811-12.141665 22.542957-12.141665 39.788012V442.806712c0 17.449805 4.074522 30.610101 12.141665 39.445056 8.067144 8.870787 18.596404 13.288264 31.505882 13.288265 12.991377 0 23.689556-4.412359 32.099655-13.288265 8.399862-8.834955 12.566521-21.145539 12.566521-36.85497zM511.874591-128c-136.711466 0-265.279007 53.245195-361.915811 149.922949C53.240076 118.595584 0 247.204075 0 384.002559s53.327095 265.360907 150.045799 362.079611C246.682603 842.759924 375.245025 896 512.043509 896c136.716584 0 265.279007-53.240076 361.997711-149.91783 199.554309-199.595259 199.641328-524.446231 0.087019-724.087559-96.805723-96.708466-225.368145-149.994611-362.253648-149.994611z m0.168918 937.052982c-113.533784 0-220.274993-44.200371-300.516453-124.44695C131.193458 604.318502 86.952137 497.536344 86.952137 384.002559c0-113.574734 44.154302-220.356893 124.4879-300.608591 80.24658-80.236342 186.900769-124.436713 300.434554-124.436713 113.615684 0 220.438792 44.241321 300.77239 124.528851 165.67333 165.709161 165.59143 435.405646-0.087018 601.119926-80.24658 80.24658-186.982669 124.44695-300.516454 124.44695z"  horiz-adv-x="1024" />

    
    <glyph glyph-name="yonghu-copy" unicode="&#58887;" d="M871.739 743.23c-95.998 96-223.631 148.867-359.391 148.867-135.761 0-263.394-52.867-359.391-148.867-95.998-95.997-148.866-223.631-148.866-359.391 0-98.908 28.439-194.796 82.245-277.3 10.667-16.352 32.573-20.96 48.927-10.301 16.355 10.667 20.969 32.573 10.302 48.929-46.294 70.982-70.764 153.516-70.764 238.672 0 241.262 196.283 437.546 437.545 437.546 241.264 0 437.545-196.284 437.545-437.546s-196.281-437.546-437.542-437.546c-79.89 0-158.051 21.725-226.029 62.821-16.709 10.105-38.447 4.747-48.548-11.962-10.102-16.711-4.747-38.448 11.962-48.548 79.017-47.771 169.825-73.023 262.612-73.023 135.762 0 263.394 52.867 359.392 148.867 95.997 95.997 148.865 223.631 148.865 359.391s-52.867 263.393-148.865 359.39zM223.065 118.891c0-19.526 15.83-35.357 35.357-35.357s35.357 15.83 35.357 35.357c0 119.872 97.521 217.391 217.392 217.391s217.392-97.52 217.392-217.391c0-19.526 15.83-35.357 35.357-35.357 19.526 0 35.357 15.83 35.357 35.357 0 118.097-71.436 219.806-173.356 264.237 54.873 36.999 91.034 99.724 91.034 170.74 0 113.47-92.314 205.783-205.782 205.783s-205.782-92.314-205.782-205.783c0-71.015 36.161-133.741 91.034-170.74-101.92-44.43-173.356-146.14-173.356-264.237zM376.097 553.868c0 74.479 60.592 135.072 135.071 135.072s135.070-60.593 135.070-135.072-60.592-135.072-135.071-135.072-135.070 60.592-135.070 135.072z"  horiz-adv-x="1024" />

    
    <glyph glyph-name="diqiu" unicode="&#58957;" d="M511.8-31.2c-231.4 0-419.7 192.9-419.7 430.1 0 237.3 188.3 430.3 419.7 430.3 231.5 0 419.9-193 419.9-430.3-0.1-237.2-188.4-430.1-419.9-430.1z m0 818.3c-208.2 0-377.6-174.2-377.6-388.3 0-214 169.4-388 377.6-388 208.3 0 377.8 174.1 377.8 388 0 214.1-169.5 388.3-377.8 388.3zM511.8-31.2c-137.7 0-249.6 192.9-249.6 430.1 0 237.3 112 430.3 249.6 430.3 68.9 0 132.8-46.5 179.9-130.9 45-80.5 69.7-186.8 69.7-299.4 0-112.5-24.8-218.8-69.7-299.2-47.1-84.4-111-130.9-179.9-130.9z m0 818.3c-112.5 0-207.6-177.8-207.6-388.3 0-210.3 95.1-388 207.6-388s207.6 177.7 207.6 388c0 210.5-95.1 388.3-207.6 388.3zM512.4-26.8c-11.6 0-21 9.4-21 21V802.5c0 11.6 9.4 21 21 21s21-9.4 21-21v-808.3c0-11.6-9.4-21-21-21zM511.8 559.6c-121.9 0-238.3 29.7-319.4 81.5-9.8 6.2-12.6 19.2-6.4 29 6.2 9.8 19.2 12.7 29 6.4 74.5-47.6 182.7-74.9 296.8-74.9 114.1 0 222.3 27.3 296.8 74.9 9.8 6.3 22.8 3.4 29-6.4 6.2-9.8 3.4-22.8-6.4-29-81.1-51.8-197.5-81.5-319.4-81.5z m390-182.2H127.4c-11.6 0-21 9.4-21 21s9.4 21 21 21h774.4c11.6 0 21-9.4 21-21s-9.4-21-21-21z m-82-244.7c-3.9 0-7.8 1.1-11.3 3.3-74.3 47.4-182.5 74.6-296.8 74.6-114.3 0-222.5-27.2-296.8-74.6-9.8-6.3-22.8-3.4-29 6.4-6.2 9.8-3.4 22.8 6.4 29 80.9 51.6 197.3 81.3 319.4 81.3 122.1 0 238.5-29.6 319.4-81.3 9.8-6.2 12.6-19.2 6.4-29-4-6.3-10.7-9.7-17.7-9.7z"  horiz-adv-x="1024" />

    


  </font>
</defs>
</svg>
